<?xml version="1.0" encoding="UTF-8" standalone="no"?>
<!-- Created with Inkscape (http://www.inkscape.org/) -->

<svg
   xmlns:dc="http://purl.org/dc/elements/1.1/"
   xmlns:cc="http://creativecommons.org/ns#"
   xmlns:rdf="http://www.w3.org/1999/02/22-rdf-syntax-ns#"
   xmlns:svg="http://www.w3.org/2000/svg"
   xmlns="http://www.w3.org/2000/svg"
   xmlns:sodipodi="http://sodipodi.sourceforge.net/DTD/sodipodi-0.dtd"
   xmlns:inkscape="http://www.inkscape.org/namespaces/inkscape"
   width="16in"
   height="24in"
   viewBox="0 0 406.4 609.6"
   version="1.1"
   id="svg8"
   inkscape:version="0.92.4 (f8dce91, 2019-08-02)"
   sodipodi:docname="keep-calm-call-clone2.svg">
  <title
     id="title1486">Keep Calm and Call Clone</title>
  <defs
     id="defs2">
    <clipPath
       id="clipPath4579"
       clipPathUnits="userSpaceOnUse">
      <path
         inkscape:connector-curvature="0"
         id="path4577"
         d="M 0,800 H 1200 V 0 H 0 Z" />
    </clipPath>
  </defs>
  <sodipodi:namedview
     id="base"
     pagecolor="#ff0000"
     bordercolor="#666666"
     borderopacity="1.0"
     inkscape:pageopacity="0"
     inkscape:pageshadow="2"
     inkscape:zoom="0.39105903"
     inkscape:cx="164.51055"
     inkscape:cy="1235.6371"
     inkscape:document-units="mm"
     inkscape:current-layer="layer1"
     showgrid="false"
     units="in"
     width="16in"
     inkscape:window-width="1850"
     inkscape:window-height="1136"
     inkscape:window-x="70"
     inkscape:window-y="27"
     inkscape:window-maximized="1"
     inkscape:pagecheckerboard="true" />
  <metadata
     id="metadata5">
    <rdf:RDF>
      <cc:Work
         rdf:about="">
        <dc:format>image/svg+xml</dc:format>
        <dc:type
           rdf:resource="http://purl.org/dc/dcmitype/StillImage" />
        <dc:title>Keep Calm and Call Clone</dc:title>
        <cc:license
           rdf:resource="http://creativecommons.org/publicdomain/zero/1.0/" />
        <dc:creator>
          <cc:Agent>
            <dc:title>Ted Mielczarek</dc:title>
          </cc:Agent>
        </dc:creator>
      </cc:Work>
      <cc:License
         rdf:about="http://creativecommons.org/publicdomain/zero/1.0/">
        <cc:permits
           rdf:resource="http://creativecommons.org/ns#Reproduction" />
        <cc:permits
           rdf:resource="http://creativecommons.org/ns#Distribution" />
        <cc:permits
           rdf:resource="http://creativecommons.org/ns#DerivativeWorks" />
      </cc:License>
    </rdf:RDF>
  </metadata>
  <g
     inkscape:groupmode="layer"
     id="layer2"
     inkscape:label="Background">
    <rect
       style="opacity:1;fill:#ff0000;fill-opacity:1;stroke:none;stroke-width:0.26458332;stroke-opacity:1"
       id="rect4791"
       width="407.94275"
       height="612.24469"
       x="-0.77137452"
       y="-1.322345" />
  </g>
  <g
     inkscape:label="Text"
     inkscape:groupmode="layer"
     id="layer1"
     transform="translate(0,312.6)">
    <text
       xml:space="preserve"
       style="font-style:normal;font-variant:normal;font-weight:normal;font-stretch:normal;font-size:87.36568451px;line-height:1.25;font-family:'Keep Calm';-inkscape-font-specification:'Keep Calm';letter-spacing:0px;word-spacing:0px;fill:#000000;fill-opacity:1;stroke:none;stroke-width:0.91005915"
       x="211.57416"
       y="-117.00276"
       id="text817"
       transform="scale(0.96425525,1.0370698)"><tspan
         sodipodi:role="line"
         id="tspan815"
         x="211.57416"
         y="-117.00276"
         style="line-height:1.25;text-align:center;text-anchor:middle;fill:#ffffff;stroke-width:0.91005915">KEEP</tspan><tspan
         sodipodi:role="line"
         x="211.57414"
         y="-7.7956562"
         style="line-height:1.25;text-align:center;text-anchor:middle;fill:#ffffff;stroke-width:0.91005915"
         id="tspan819">CALM</tspan><tspan
         sodipodi:role="line"
         x="211.57416"
         y="101.41145"
         style="line-height:1.25;text-align:center;text-anchor:middle;fill:#ffffff;stroke-width:0.91005915"
         id="tspan825" /></text>
    <text
       xml:space="preserve"
       style="font-style:normal;font-variant:normal;font-weight:normal;font-stretch:normal;font-size:65.56017303px;line-height:1.25;font-family:'Keep Calm';-inkscape-font-specification:'Keep Calm';text-align:center;letter-spacing:0px;word-spacing:0px;text-anchor:middle;fill:#ffffff;fill-opacity:1;stroke:none;stroke-width:0.68291837"
       x="203.83545"
       y="62.450932"
       id="text829"><tspan
         sodipodi:role="line"
         id="tspan827"
         x="203.83545"
         y="62.450932"
         style="font-size:43.70677567px;text-align:center;text-anchor:middle;fill:#ffffff;stroke-width:0.68291837">AND</tspan></text>
    <text
       xml:space="preserve"
       style="font-style:normal;font-variant:normal;font-weight:normal;font-stretch:normal;font-size:65.56017303px;line-height:1.25;font-family:'Keep Calm';-inkscape-font-specification:'Keep Calm';letter-spacing:0px;word-spacing:0px;fill:#ffffff;fill-opacity:1;stroke:none;stroke-width:0.68291837"
       x="202.78229"
       y="159.10876"
       id="text837"><tspan
         sodipodi:role="line"
         id="tspan835"
         x="202.78229"
         y="159.10876"
         style="font-size:87.36568451px;text-align:center;text-anchor:middle;fill:#ffffff;stroke-width:0.68291837">CALL</tspan><tspan
         sodipodi:role="line"
         x="202.78229"
         y="268.31586"
         style="font-size:87.36568451px;text-align:center;text-anchor:middle;fill:#ffffff;stroke-width:0.68291837"
         id="tspan839">CLONE</tspan></text>
    <g
       transform="matrix(0.35277777,0,0,-0.35277777,-20.993106,-97.354864)"
       inkscape:label="rustacean-flat-happy"
       id="g4571">
      <g
         id="g4573"
         style="fill:#ffffff"
         transform="matrix(0.35225216,0,0,0.35225216,424.66797,298.70701)">
        <g
           clip-path="url(#clipPath4579)"
           id="g4575"
           style="fill:#ffffff">
          <g
             transform="translate(1009.3994,300.8408)"
             id="g4581"
             style="fill:#ffffff">
            <path
               inkscape:connector-curvature="0"
               id="path4583"
               style="fill:#ffffff;fill-opacity:1;fill-rule:nonzero;stroke:none"
               d="m 0,0 -12.072,25.006 c 0.063,0.947 0.111,1.898 0.111,2.853 0,28.346 -29.478,54.471 -79.069,75.389 V 85.855 c -4.836,1.919 -9.871,3.787 -15.117,5.593 v 8.108 c -70.874,25.56 -176.383,41.778 -294.241,41.778 -102.973,0 -196.529,-12.38 -265.791,-32.554 V 80.534 h -0.002 v 34.188 c -70.96,-22.55 -114.954,-53.877 -114.954,-88.515 0,-5.46 1.101,-10.838 3.217,-16.113 l -7.228,-12.867 c 0,0 -5.792,-7.512 4.406,-23.362 8.994,-13.977 54.048,-68.685 77.827,-97.335 10.214,-14.687 17.141,-23.734 17.746,-22.859 0.955,1.386 -6.351,28.961 -26.635,60.423 -9.466,16.895 -20.768,39.283 -27.554,55.819 18.942,-11.99 130.23,-68.029 357.232,-67.801 231.994,0.232 335.115,72.851 346.433,82.737 -3.955,-15.889 -17.468,-48.033 -28.245,-70.638 -17.706,-32.331 -24.12,-60.478 -23.296,-61.87 0.524,-0.878 6.565,8.441 15.476,23.543 20.731,29.543 60.017,85.939 67.867,100.305 C 5.007,-7.526 0,0 0,0" />
          </g>
          <g
             transform="translate(1079.4854,300.9805)"
             id="g4585"
             style="fill:#ffffff">
            <path
               inkscape:connector-curvature="0"
               id="path4587"
               style="fill:#ffffff;fill-opacity:1;fill-rule:nonzero;stroke:none"
               d="m 0,0 -79.343,58.446 c -0.745,2.6 -1.49,5.201 -2.26,7.781 l 26.062,37.754 c 2.66,3.84 3.196,8.832 1.469,13.211 -1.731,4.358 -5.515,7.482 -9.99,8.247 l -44.066,7.479 c -1.709,3.485 -3.498,6.916 -5.294,10.319 l 18.515,42.388 c 1.903,4.317 1.505,9.335 -1.022,13.254 -2.517,3.937 -6.786,6.237 -11.338,6.058 l -44.724,-1.625 c -2.315,3.016 -4.667,6.003 -7.067,8.937 l 10.278,45.432 c 1.042,4.612 -0.274,9.443 -3.487,12.794 -3.195,3.339 -7.838,4.722 -12.253,3.639 l -43.562,-10.709 c -2.82,2.493 -5.688,4.953 -8.588,7.365 l 1.567,46.641 c 0.168,4.721 -2.033,9.208 -5.812,11.829 -3.777,2.636 -8.57,3.032 -12.701,1.074 l -40.638,-19.321 c -3.273,1.878 -6.565,3.737 -9.892,5.537 l -7.181,45.961 c -0.729,4.656 -3.724,8.612 -7.919,10.418 -4.185,1.817 -8.976,1.228 -12.648,-1.536 l -36.232,-27.185 c -3.569,1.185 -7.153,2.32 -10.779,3.407 l -15.617,43.585 c -1.588,4.443 -5.25,7.706 -9.716,8.624 -4.45,0.909 -9.028,-0.632 -12.114,-4.08 l -30.499,-34.119 c -3.685,0.423 -7.377,0.81 -11.076,1.131 l -23.549,39.676 c -2.384,4.018 -6.597,6.464 -11.139,6.464 -4.529,0 -8.75,-2.446 -11.118,-6.464 l -23.555,-39.676 c -3.701,-0.321 -7.408,-0.708 -11.088,-1.131 l -30.499,34.119 c -3.09,3.448 -7.684,4.989 -12.122,4.08 -4.46,-0.93 -8.128,-4.181 -9.707,-8.624 l -15.629,-43.585 c -3.621,-1.087 -7.205,-2.23 -10.78,-3.407 l -36.22,27.185 c -3.683,2.774 -8.478,3.361 -12.668,1.536 -4.181,-1.806 -7.188,-5.762 -7.913,-10.418 L -661.1,316.53 c -3.322,-1.8 -6.614,-3.649 -9.895,-5.537 l -40.634,19.321 c -4.127,1.966 -8.945,1.562 -12.704,-1.074 -3.773,-2.621 -5.98,-7.108 -5.81,-11.829 l 1.562,-46.641 c -2.894,-2.412 -5.756,-4.872 -8.591,-7.365 l -43.554,10.709 c -4.423,1.074 -9.062,-0.3 -12.265,-3.639 -3.221,-3.351 -4.526,-8.182 -3.491,-12.794 l 10.257,-45.432 c -2.378,-2.945 -4.733,-5.921 -7.042,-8.937 l -44.724,1.625 c -4.513,0.135 -8.821,-2.121 -11.343,-6.058 -2.527,-3.919 -2.91,-8.937 -1.029,-13.254 l 18.528,-42.388 c -1.799,-3.403 -3.586,-6.834 -5.309,-10.319 l -44.063,-7.479 c -4.479,-0.754 -8.252,-3.876 -9.994,-8.247 -1.728,-4.379 -1.167,-9.371 1.474,-13.211 l 26.066,-37.754 c -0.201,-0.667 -0.387,-1.339 -0.587,-2.008 l -73.696,-78.285 c 0,0 -11.296,-8.851 5.147,-29.654 14.5,-18.351 88.951,-91.096 128.271,-129.205 16.606,-19.348 27.984,-31.329 29.172,-30.293 1.876,1.645 -7.972,36.847 -40.682,78.149 -25.216,37.056 -57.941,94.049 -50.267,100.618 0,0 8.729,11.081 26.242,19.057 0.641,-0.512 -0.662,0.507 0,0 0,0 369.595,-170.491 712.429,-2.884 39.164,7.025 62.873,-13.955 62.873,-13.955 8.176,-4.74 -12.996,-63.344 -30.407,-102.137 -23.679,-44.05 -27.151,-78.422 -25.144,-79.614 1.268,-0.757 9.883,12.353 22.172,33.217 C -67.814,-128.514 -10.492,-47.965 0,-28.399 11.895,-6.217 0,0 0,0" />
          </g>
          <g
             transform="translate(917.8965,322.8555)"
             id="g4589"
             style="fill:#ffffff">
            <path
               inkscape:connector-curvature="0"
               id="path4591"
               style="fill:#ffffff;fill-opacity:1;fill-rule:nonzero;stroke:none"
               d="m 0,0 c 0,0 53.179,2.466 123.032,73.462 l 9.898,21.979 c 0,0 -108.417,107.848 60.118,182.291 0,0 -14.755,-24.112 -10.426,-117.272 0,0 50.815,17.649 65.714,99.94 0,0 74.12,-97.724 -80.502,-189.377 0,0 -72.54,-116.289 -174.805,-105.15 z" />
          </g>
          <g
             transform="translate(269.7959,338.4814)"
             id="g4613"
             style="fill:#ffffff">
            <path
               inkscape:connector-curvature="0"
               id="path4615"
               style="fill:#ffffff;fill-opacity:1;fill-rule:nonzero;stroke:none"
               d="m 0,0 c -0.667,0 -1.321,-0.049 -1.973,-0.101 -26.234,5.971 -99.973,25.185 -119.464,56.363 0,0 99.227,112.872 -55.86,185.019 l 18.057,-124.878 c 0,0 -47.809,31.949 -58.126,101.346 0,0 -116.423,-84.494 51.384,-165.474 0,0 15.22,-57.187 161.349,-102.815 l 0.107,0.435 c 1.471,-0.272 2.977,-0.435 4.526,-0.435 13.808,0 25.003,11.312 25.003,25.271 C 25.003,-11.313 13.808,0 0,0" />
          </g>
        </g>
      </g>
    </g>
  </g>
</svg>
